<svg width="14" height="14" viewBox="0 0 14 14" fill="none" xmlns="http://www.w3.org/2000/svg">
<path d="M13.4394 12.4975C13.565 12.622 13.6356 12.7915 13.6356 12.9684C13.6356 13.1452 13.565 13.3147 13.4394 13.4392C13.3149 13.5648 13.1454 13.6354 12.9686 13.6354C12.7918 13.6354 12.6223 13.5648 12.4977 13.4392L7.00016 7.93457L1.50259 13.4392C1.37807 13.5648 1.20857 13.6354 1.03175 13.6354C0.854926 13.6354 0.685426 13.5648 0.560907 13.4392C0.435363 13.3147 0.364746 13.1452 0.364746 12.9684C0.364746 12.7915 0.435363 12.622 0.560907 12.4975L6.06511 6.99944L0.560907 1.50141C0.392691 1.33318 0.326996 1.08798 0.388567 0.85817C0.450138 0.628364 0.629622 0.448865 0.859408 0.387289C1.0892 0.325713 1.33437 0.391414 1.50259 0.559644L7.00016 6.06431L12.4977 0.559644C12.7578 0.299583 13.1794 0.299583 13.4394 0.559644C13.6995 0.819704 13.6995 1.24135 13.4394 1.50141L7.93521 6.99944L13.4394 12.4975Z" fill="white"/>
</svg>
