<svg width="1107" height="495" viewBox="0 0 1107 495" fill="none" xmlns="http://www.w3.org/2000/svg">
<path d="M346.074 5.33491C355.569 4.22006 364.3 -0.1303 373.986 0.00299804C352.285 97.7831 330.634 195.575 308.946 293.355C306.515 304.637 303.74 316.052 304.249 327.649C304.605 332.521 306.222 338.531 311.733 340.204C319.052 342.603 326.383 338.725 332.238 334.86C332.607 338.725 332.938 342.591 333.205 346.469C322.03 353.497 308.195 357.738 294.817 354.879C283.744 352.491 275.369 343.488 272.11 333.393C267.21 318.827 269.45 303.22 272.836 288.593C291.012 206.082 309.175 123.582 327.287 41.0709C328.916 34.6726 328.102 26.5778 321.903 22.6031C313.4 17.2954 302.76 18.7495 293.137 18.5556C293.977 15.0172 294.792 11.4787 295.645 7.94029C312.471 7.72216 329.374 7.52827 346.074 5.33491Z" fill="white"/>
<path d="M69.7416 30.9495C145.138 30.9255 220.523 30.9495 295.907 30.9375C297.026 51.8054 298.144 72.6854 299.189 93.5533C295.194 93.5533 291.198 93.5533 287.191 93.5533C284.511 81.2469 280.233 68.4468 270.496 59.7047C260.919 50.8782 247.642 47.5789 234.967 45.7967C216.982 43.268 198.787 43.9785 180.679 43.8701C173.192 43.8099 165.607 46.4831 160.259 51.673C152.723 58.8858 149.121 69.0007 146.859 78.8507C139.36 113.542 131.849 148.246 124.362 182.95C151.346 182.986 178.319 182.95 205.303 182.962C215.064 182.937 225.047 179.53 231.845 172.497C239.332 164.839 242.811 154.375 244.643 144.128C248.343 144.128 252.056 144.128 255.768 144.14C249.019 175.737 242.307 207.358 235.594 238.967C231.894 238.955 228.206 238.955 224.518 238.93C226.362 229.875 228.427 219.917 224.026 211.235C220.203 203.577 211.069 200.241 202.832 200.121C175.393 200.109 147.966 200.133 120.526 200.109C112.806 236.269 105.159 272.442 97.4882 308.615C95.8163 316.863 94.6361 325.774 97.9185 333.793C100.353 339.682 106.635 343.222 112.941 343.607C120.477 343.908 128.025 343.619 135.561 343.728C134.738 347.725 133.951 351.735 133.177 355.757C88.7844 355.769 44.3922 355.721 0 355.781V355.528C0.762203 351.591 1.57358 347.653 2.34808 343.716C9.34313 343.668 16.3382 343.788 23.321 343.692C32.4305 343.475 41.0114 338.658 46.31 331.482C53.0837 322.438 55.5302 311.24 57.6938 300.451C73.6263 226.299 89.5834 152.159 105.491 78.0078C107.114 69.6871 108.208 60.5717 104.397 52.6604C101.803 47.1815 95.9146 43.8701 89.9399 43.2078C82.2565 42.6659 74.5361 43.1476 66.8403 42.9549C67.7746 38.9451 68.7335 34.9473 69.7416 30.9495Z" fill="white"/>
<path d="M658.216 30.9375C668.185 30.9375 678.154 30.9375 688.135 30.9375C688.135 144.379 688.135 257.808 688.135 371.25C678.154 371.25 668.185 371.25 658.216 371.25C658.216 257.808 658.216 144.379 658.216 30.9375Z" fill="white"/>
<path d="M733.013 30.9375C742.982 30.9375 752.951 30.9375 762.932 30.9375C762.932 46.4062 762.932 61.875 762.932 77.3438C752.951 77.3438 742.982 77.3438 733.013 77.3438C733.013 61.875 733.013 46.4062 733.013 30.9375Z" fill="white"/>
<path d="M1029.04 46.4063C1038.89 46.4063 1048.73 46.4063 1058.58 46.4063C1058.58 71.3894 1058.58 96.3725 1058.58 121.356C1074.72 121.356 1090.86 121.343 1107 121.356C1107 129.688 1107 138.007 1107 146.326C1090.86 146.351 1074.72 146.339 1058.58 146.339C1058.58 200.877 1058.58 255.415 1058.58 309.953C1058.42 319.16 1058.59 328.853 1062.72 337.26C1065.68 342.881 1072.21 344.805 1077.97 345.654C1087.64 346.429 1097.34 345.529 1107 344.892C1107 353.349 1107 361.793 1107 370.25C1091.26 370.375 1075.31 372.936 1059.74 369.338C1051.08 367.415 1042.1 363.542 1037 355.735C1030.76 345.954 1029.42 333.912 1029.04 322.495C1029.06 263.772 1029.04 205.062 1029.04 146.339C1015.13 146.326 1001.23 146.351 987.324 146.339C987.324 138.007 987.324 129.688 987.324 121.356C1001.23 121.343 1015.15 121.368 1029.04 121.343C1029.04 96.3725 1029.04 71.3894 1029.04 46.4063Z" fill="white"/>
<path d="M840.164 118.771C860.954 109.175 884.391 106.761 906.888 109.125C928.336 111.502 949.955 121.11 963.156 139.269C973.66 153.166 978.296 170.809 979.041 188.202C969.195 188.24 959.349 188.189 949.504 188.227C949.162 174.557 944.538 160.623 934.851 151.003C921.943 137.458 902.544 133.233 884.72 133.799C868.798 134.164 851.669 138.301 840.213 150.449C831.905 159.139 829.111 172.218 831.453 183.964C833.686 194.213 841.811 201.809 850.315 206.877C867.42 216.837 887.184 219.704 906.009 224.433C917.502 227.551 929.495 228.746 940.634 233.223C956.446 238.995 971.22 249.509 979.565 264.826C987.41 278.056 988.435 294.304 986.446 309.332C983.628 330.082 969.158 347.462 951.749 357.334C931.789 368.652 908.413 371.67 885.952 371.205C861.429 370.765 835.955 363.546 817.594 346.091C801.135 330.006 794.34 306.213 792.851 283.476C802.648 283.501 812.445 283.413 822.242 283.526C823.133 298.831 827.988 314.526 838.749 325.542C853.048 339.954 873.593 346.355 893.309 345.739C913.11 345.751 934.497 340.319 948.32 324.762C957.519 314.978 959.911 299.95 956.324 287.11C953.957 278.911 948.088 272.195 941.232 267.58C931.398 260.99 920.003 257.595 908.791 254.476C882.194 247.622 854.134 244.189 829.867 230.18C816.667 222.697 805.857 209.97 802.721 194.527C799.61 178.33 800.635 160.422 809.139 146.048C816.178 133.673 827.549 124.505 840.164 118.771Z" fill="white"/>
<path d="M733.029 123.75C742.984 123.75 752.952 123.75 762.932 123.75C762.932 206.25 762.932 288.75 762.932 371.25C752.952 371.25 742.984 371.25 733.017 371.25C733.017 288.75 733.004 206.25 733.029 123.75Z" fill="white"/>
<path d="M376.313 152.414C389.49 143.808 405.327 136.785 421.37 140.023C430.162 141.691 436.21 149.529 438.688 157.721C443.424 172.765 443.692 188.771 443.619 204.411C444.056 236.435 439.696 268.398 441.736 300.397C442.416 307.932 443.145 315.831 446.958 322.513C449.557 327.163 455.35 329.609 460.475 328.137C468.212 326.299 474.077 320.432 479.263 314.736C489.1 303.233 496.436 289.869 503.322 276.456C514.726 253.317 524.283 229.29 532.675 204.91C536.149 194.187 539.124 182.782 537.533 171.438C536.647 165.024 533.343 158.487 527.368 155.505C521.32 152.183 514.228 152.621 507.585 152.669C508.167 149.03 508.835 145.415 509.418 141.776C526.214 141.642 542.998 141.739 559.782 141.715C563.729 141.532 567.02 144.77 567.883 148.458C569.631 154.678 567.008 160.873 565.272 166.776C557.268 191.424 546.8 215.195 535.711 238.577C513.997 283.515 489.173 327.005 460.682 367.975C450.383 382.593 439.708 396.992 428.049 410.551C445.999 414.738 464.993 413.752 482.36 407.545C504.961 399.718 524.672 385.782 544.103 372.162C544.116 375.448 544.116 378.734 544.128 382.021C533.453 391.649 521.126 399.207 508.58 406.121C485.748 418.353 459.565 426.302 433.49 422.942C428.62 422.674 423.811 420.849 419.002 420.982C403.274 438.266 386.017 454.625 365.614 466.261C348.951 474.781 331.366 481.537 313.21 486.125C298.43 490.702 283.03 492.759 267.667 494.244C251.758 495.157 235.545 495.96 219.915 492.114C207.527 490.008 195.285 484.251 187.416 474.161C179.898 465.348 177.773 452.69 180.918 441.674C184.161 430.148 191.654 420.362 200.119 412.146C208.341 404.186 218.324 398.355 228.586 393.45C262.433 377.761 301.284 373.866 337.803 380.828C364.751 385.782 389.101 399 415.103 407.058C424.284 398.927 432.798 389.945 439.635 379.72C443.182 374.304 446.873 368.997 450.48 363.642C440.522 365.419 429.458 363.118 422.281 355.62C413.111 346.017 409.699 332.579 407.573 319.836C405.169 304.195 405.011 288.323 405.375 272.549C405.351 248.193 405.375 223.837 405.363 199.482C404.78 187.59 405.351 175.467 402.266 163.867C401.185 159.875 398.441 155.298 393.765 155.396C386.223 155.98 379.908 160.508 373.544 164.135C374.467 160.228 375.499 156.345 376.313 152.414ZM257.332 400.266C242.151 403.711 228.634 412.73 218.299 424.208C212.106 431 210.126 441.869 215.372 449.769C220.388 456.743 228.78 460.273 236.893 462.172C257.211 466.87 278.245 463.815 298.515 460.382C336.26 453.943 372.718 439.228 403.675 416.528C372.354 407.715 341.822 393.158 308.68 393.487C291.301 392.647 274.019 395.604 257.332 400.266Z" fill="white"/>
<path d="M604.633 312.621C607.468 311.38 610.196 309.781 613.338 309.375C606.169 330.054 598.598 350.594 591.334 371.25C581.768 365.837 572.39 360.111 562.953 354.489C579.311 339.605 595.752 324.815 612.169 310.001C593.732 323.876 575.957 338.643 557.816 352.924C558.56 356.587 559.481 360.215 560.166 363.901C560.615 360.713 561.264 357.549 561.902 354.396C564.075 355.88 566.26 357.387 568.445 358.882C565.315 362.278 562.315 365.802 559.221 369.222C557.863 363.345 556.434 357.491 555.028 351.626C549.524 348.635 544.032 345.633 538.54 342.631C560.579 332.651 582.606 322.624 604.633 312.621Z" fill="white"/>
</svg>
