<svg width="1268" height="346" viewBox="0 0 1268 346" fill="none" xmlns="http://www.w3.org/2000/svg">
<path fill-rule="evenodd" clip-rule="evenodd" d="M236.855 2.01897C231.499 4.46443 224.302 12.2378 222.588 17.4282C221.859 19.6366 221.462 24.3805 221.697 28.0735C223.141 50.7334 250 60.7555 266.104 44.6436C270.92 39.8246 274.435 31.9454 274.435 25.9646C274.435 21.4218 271.236 13.1637 267.925 9.16169C261.017 0.81264 246.704 -2.4783 236.855 2.01897ZM154.092 8.44425C148.142 11.1458 144.01 17.4652 143.402 24.7974C142.611 34.3231 148.26 42.3833 157.636 45.1081C164.536 47.1134 170.101 45.8679 175.526 41.1061C184.588 33.1528 185.511 21.8588 177.813 13.095C171.817 6.26968 162.786 4.49934 154.092 8.44425ZM84.3365 14.733C76.791 19.3319 75.8213 29.2195 82.2818 35.6776C85.3622 38.7569 86.479 39.1918 91.3019 39.1918C96.1247 39.1918 97.2415 38.7569 100.322 35.6776C104.681 31.32 105.834 26.1529 103.625 20.8684C100.573 13.5669 91.1611 10.5733 84.3365 14.733ZM622.705 64.1564C614.841 66.2442 609.185 70.55 605.318 77.3922C602.43 82.5022 602.055 84.2079 601.697 93.8935L601.297 104.696L595.857 105.013L590.418 105.328V113.794V122.259L595.976 122.579L601.533 122.899V154.06V185.221H612.119H622.705V154.005V122.788H631.111C635.735 122.788 639.734 122.431 640 121.995C640.265 121.559 640.825 117.51 641.245 113L642.008 104.799H632.356H622.705V98.6077C622.705 86.0883 626.045 82.5773 637.953 82.5773H644.838L645.372 79.1382C645.664 77.2472 646.188 73.0314 646.534 69.7712L647.165 63.8432L640.602 63.1575C631.728 62.2306 629.49 62.3554 622.705 64.1564ZM197.688 69.7426C195.359 70.8061 191.466 73.8409 189.036 76.4864C175.349 91.3877 183.541 115.603 203.69 119.809C218.261 122.851 233.112 111.72 234.928 96.3993C236.23 85.4143 227.807 72.0632 217.678 69.0558C211.397 67.1913 202.615 67.4929 197.688 69.7426ZM274.291 70.7119C257.011 79.6853 255.425 103.794 271.357 115.331C280.412 121.888 292.828 121.87 301.917 115.288C322.655 100.272 312.182 67.7627 286.608 67.7627C281.409 67.7627 278.738 68.4019 274.291 70.7119ZM475.013 70.9722C473.914 72.7478 430.045 183.323 430.045 184.314C430.045 184.812 435.219 185.221 441.543 185.221H453.041L458.163 170.915L463.284 156.611L486.538 156.894L509.792 157.179L514.467 171.2L519.142 185.221H531.241H543.34L541.925 181.782C541.147 179.89 531.28 153.939 519.998 124.111L499.485 69.8791H487.587C480.545 69.8791 475.413 70.3257 475.013 70.9722ZM553.898 127.55V185.295L564.748 184.993L575.598 184.692V127.55V70.4082L564.748 70.1066L553.898 69.805V127.55ZM817.555 70.9711C786.506 77.4546 768.481 98.4299 768.481 128.079C768.481 144.697 773.369 157.194 784.045 167.865C791.538 175.355 800.285 180.168 812.037 183.264C818.646 185.006 823.379 185.39 837.879 185.358C847.643 185.337 856.099 185.031 856.671 184.678C857.288 184.297 857.467 180.945 857.113 176.427C856.087 163.376 857.202 164.447 845.152 164.93C818.749 165.991 803.172 159.699 796.103 145.116C793.236 139.204 792.187 123.456 794.139 115.648C795.858 108.773 800.808 101.374 805.976 97.9548C814.062 92.6067 817.893 91.7634 837.065 91.1189L855.061 90.5136L856.398 81.0927C857.134 75.9107 857.465 71.4008 857.135 71.0706C856.094 70.0304 822.465 69.9458 817.555 70.9711ZM1053.54 80.953V92.1009H1064.7H1075.85L1075.55 81.2546L1075.24 70.4082L1064.39 70.1066L1053.54 69.805V80.953ZM1246.2 127.55V185.221H1256.79H1267.37V127.55V69.8791H1256.79H1246.2V127.55ZM115.12 75.8737C107.968 79.6514 104.068 86.0259 104.028 94.0057C103.965 106.341 116.654 116.414 128.304 113.277C135.717 111.282 141.947 104.542 143.639 96.6871C145.236 89.2671 139.322 78.6652 131.843 75.5414C127.28 73.6356 119.047 73.7997 115.12 75.8737ZM45.1693 82.4566C37.6238 87.0555 36.6542 96.9432 43.1147 103.401C46.1951 106.481 47.3119 106.915 52.1347 106.915C56.9576 106.915 58.0744 106.481 61.1548 103.401C65.514 99.0437 66.6668 93.8766 64.4576 88.592C61.4057 81.2905 51.9939 78.2969 45.1693 82.4566ZM1100.12 92.5771V104.693L1094.03 105.011L1087.95 105.328V113.794V122.259L1094.03 122.577L1100.12 122.894V143.812C1100.12 168.653 1101.11 173.48 1107.4 179.155C1113.6 184.752 1118.76 185.913 1135.32 185.429L1142.46 185.221V175.168V165.115H1134.71C1127.74 165.115 1126.69 164.838 1124.39 162.387C1121.91 159.749 1121.81 159.045 1121.47 141.224L1121.12 122.788H1132.35C1140.41 122.788 1143.71 122.415 1144 121.465C1144.23 120.738 1144.72 116.691 1145.09 112.471L1145.77 104.799H1133.53H1121.29V92.63V80.4609H1110.71H1100.12V92.5771ZM481.415 107.18C478.636 114.891 475.005 124.892 473.344 129.402L470.323 137.603H486.636H502.948L495.342 115.393C491.159 103.176 487.451 93.176 487.101 93.1707C486.751 93.1644 484.193 99.469 481.415 107.18ZM652.893 110.884C652.529 114.23 652.137 118.104 652.023 119.491L651.815 122.013L669.463 121.808C694.322 121.52 699.98 123.468 699.98 132.312V136.545H685.383C657.673 136.545 647.978 141.88 646.323 158.045C645.138 169.602 650.188 178.18 660.436 182.012C668.114 184.884 685.522 186.16 705.803 185.336L721.681 184.692L721.965 156.65C722.275 125.992 721.537 119.374 717.236 114.266C710.874 106.707 702.281 104.799 674.599 104.799H653.556L652.893 110.884ZM870.959 110.884C870.595 114.23 870.203 118.104 870.089 119.491L869.881 122.013L887.427 121.809C912.75 121.516 918.046 123.354 918.046 132.439V136.327L900.844 136.804C881.22 137.348 875.646 138.761 869.928 144.648C862.347 152.45 862.126 167.838 869.474 176.203C876.125 183.775 892.904 186.593 923.868 185.336L939.747 184.692L940.031 156.65C940.341 125.992 939.603 119.374 935.302 114.266C928.94 106.707 920.346 104.799 892.665 104.799H871.621L870.959 110.884ZM958.536 105.5C957.502 105.918 957.213 117.8 957.213 159.912V213.792H967.799H978.385V199.639V185.484L990.014 185.433C1007.74 185.352 1018.14 181.746 1025.83 173.012C1032.16 165.829 1033.96 159.625 1033.96 145.01C1033.96 134.116 1033.67 132.226 1031.21 126.972C1027.62 119.321 1023.15 114.343 1016.75 110.861C1007.51 105.835 1001 104.791 979.486 104.883C968.691 104.928 959.265 105.207 958.536 105.5ZM1041.53 107.683C1041.22 109.297 1040.67 113.358 1040.3 116.704L1039.63 122.788H1046.59H1053.54V154.042V185.295L1064.39 184.993L1075.24 184.692V145.01V105.328L1058.66 105.037L1042.08 104.746L1041.53 107.683ZM1161.08 108.152C1160.76 110.091 1160.38 113.978 1160.22 116.788L1159.93 121.9L1177.65 121.77C1202.55 121.588 1208.09 123.508 1208.09 132.312V136.545H1193.86C1172.11 136.545 1162.3 139.537 1157.25 147.713C1154.36 152.388 1153.29 163.121 1155.15 168.757C1159.71 182.591 1174.97 186.894 1213.92 185.33L1229.8 184.692V154.005C1229.8 123.387 1229.79 123.306 1227.15 118.027C1224.37 112.477 1219.99 108.852 1213.51 106.756C1211.25 106.023 1199.86 105.335 1185.66 105.072L1161.65 104.628L1161.08 108.152ZM978.385 145.01V167.232H986.131C1004.46 167.232 1013.33 159.979 1013.31 145.017C1013.29 129.274 1005.52 122.788 986.661 122.788H978.385V145.01ZM158.48 137.474C156.129 138.541 152.283 141.598 149.933 144.266C135.913 160.188 144.921 184.381 166.157 187.842C176.039 189.452 188.062 182.917 193.235 173.124C196.418 167.096 196.412 155.715 193.22 149.671C190.564 144.642 184.528 139.025 179.539 136.941C174.542 134.854 163.643 135.13 158.48 137.474ZM313.78 138.241C292.538 148.823 295.82 180.286 318.866 187.005C337.928 192.563 356.767 174.114 351.284 155.26C346.385 138.414 329.142 130.589 313.78 138.241ZM75.6011 144.106C59.3373 152.154 62.4727 176.15 80.4124 180.92C87.3714 182.771 96.6043 179.512 100.703 173.758C106.478 165.651 106.006 155.975 99.4751 148.538C93.3661 141.584 84.1555 139.874 75.6011 144.106ZM5.93762 150.35C-2.32241 155.639 -1.87464 168.662 6.72096 173.106C11.9704 175.819 17.7936 175.095 22.0459 171.199C33.9464 160.298 19.5329 141.643 5.93762 150.35ZM671.148 154.073C666.079 156.824 665.818 162.963 670.619 166.543C673.113 168.402 675.491 168.788 686.762 169.164L699.98 169.603V161.011V152.417L687.013 152.46C677.616 152.49 673.247 152.935 671.148 154.073ZM889.214 154.073C884.097 156.849 884.072 163.615 889.168 166.952C891.23 168.303 895.047 168.838 904.966 169.168L918.046 169.603V161.011V152.417L905.079 152.46C895.682 152.49 891.313 152.935 889.214 154.073ZM1179.26 154.073C1174.16 156.839 1173.93 162.964 1178.8 166.591C1181.38 168.516 1183.57 168.87 1194.94 169.193L1208.09 169.566V160.992V152.417L1195.13 152.46C1185.73 152.49 1181.36 152.935 1179.26 154.073ZM430.045 230.772C430.045 231.817 454.399 309.068 462.472 333.631L466.211 345.006H473.968H481.725L484.869 335.747C486.599 330.655 493.582 310.06 500.389 289.981C507.197 269.902 513.099 253.13 513.508 252.709C513.916 252.287 521.335 272.902 529.995 298.516L545.741 345.09L553.624 344.783L561.509 344.477L579.933 287.383C590.067 255.982 598.358 230.149 598.358 229.977C598.358 229.805 594.821 229.665 590.498 229.665H582.638L581.142 234.691C580.318 237.456 573.735 259.212 566.513 283.04L553.379 326.363L537.497 278.014L521.616 229.665H513.973H506.329L490.727 277.275C482.147 303.462 474.831 324.533 474.469 324.1C474.108 323.668 467.656 302.247 460.133 276.5L446.453 229.686L438.249 229.675C433.234 229.669 430.045 230.095 430.045 230.772ZM778.315 287.335V345.103L785.46 344.79L792.605 344.477V287.335V230.194L785.46 229.88L778.315 229.568V287.335ZM877.82 287.335V345.006H885.23H892.64V311.674V278.341H907.494C923.667 278.341 928.448 279.456 930.929 283.806C931.967 285.629 932.476 293.921 932.866 315.377L933.395 344.477L940.541 344.79L947.686 345.103L947.68 314.632C947.677 296.635 947.219 282.525 946.564 280.164C945.082 274.828 940.2 269.464 934.705 267.134C931.12 265.613 926.45 265.146 911.43 264.806L892.64 264.379V247.022V229.665H885.23H877.82V287.335ZM821.407 240.909C820.994 241.32 820.658 246.816 820.658 253.121V264.585H814.306H807.955V270.934V277.283H814.21H820.465L820.845 302.944C821.196 326.709 821.391 328.917 823.484 332.837C828.526 342.279 834.693 345.006 851.01 345.006H862.042L861.728 338.393L861.413 331.779L852.415 331.25C843.046 330.699 839.449 329.424 837.619 326.005C836.974 324.801 836.536 314.523 836.536 300.633V277.283H849.095H861.654L862.327 272.373C862.698 269.673 863 266.816 863 266.024C863 264.887 860.227 264.585 849.803 264.585H836.606L836.306 252.68L836.007 240.775L829.082 240.468C825.272 240.298 821.819 240.497 821.407 240.909ZM700.358 264.259C690.718 264.715 690.497 264.925 690.468 273.675L690.453 278.005L709.243 277.908C724.867 277.828 728.853 278.128 732.901 279.69C739.485 282.231 742.45 285.626 743.097 291.366L743.626 296.057L725.244 296.616C703.265 297.282 696.326 298.925 690.385 304.863C685.779 309.468 683.567 316.913 684.654 324.158C686.009 333.189 691.683 339.124 702.098 342.403C706.574 343.813 713.116 344.353 730.402 344.74C742.767 345.016 754.113 344.933 755.616 344.557L758.349 343.871L758.01 313.984C757.676 284.373 757.648 284.048 754.982 278.838C751.686 272.397 745.019 267.613 736.965 265.908C730.194 264.477 712.552 263.681 700.358 264.259ZM620.117 267.143C614.191 269.161 611.708 270.746 607.32 275.317C599.133 283.842 596.915 290.44 596.834 306.49C596.771 319.093 596.828 319.409 600.475 326.547C602.955 331.404 605.682 334.945 608.725 337.26C616.397 343.097 621.862 344.24 644.522 344.746L664.751 345.197L665.414 342.721C665.779 341.359 666.083 338.34 666.09 336.012L666.104 331.779L646.786 331.775C629.079 331.771 627.115 331.581 623.234 329.506C620.905 328.262 618.185 326.341 617.188 325.24C614.921 322.735 612.119 316.139 612.119 313.312C612.119 311.232 612.841 311.171 640.965 310.897L669.811 310.615L670.117 300.711C670.552 286.624 668.586 280.431 661.485 273.52C657.189 269.338 654.594 267.778 649.599 266.377C640.387 263.793 629.09 264.087 620.117 267.143ZM625.515 278.763C618.835 281.248 614.641 286.358 612.615 294.478L611.889 297.388H633.705H655.52L655.516 292.891C655.512 287.76 652.742 282.518 648.601 279.805C644.825 277.332 631.036 276.709 625.515 278.763ZM711.627 310.192C702.651 311.949 698.151 318.122 701.187 324.511C703.857 330.132 708.084 331.247 726.709 331.248L743.382 331.25V320.8V310.351L740.074 309.69C735.417 308.758 717.317 309.078 711.627 310.192Z" fill="white"/>
</svg>
